<?xml version="1.0" standalone="no"?>
<!DOCTYPE svg PUBLIC "-//W3C//DTD SVG 20010904//EN"
 "http://www.w3.org/TR/2001/REC-SVG-20010904/DTD/svg10.dtd">
<svg version="1.0" xmlns="http://www.w3.org/2000/svg"
 width="920.000000pt" height="921.000000pt" viewBox="0 0 920.000000 921.000000"
 preserveAspectRatio="xMidYMid meet">

<g transform="translate(0.000000,921.000000) scale(0.100000,-0.100000)"
fill="#000000" stroke="none">
<path d="M3757 8193 c-4 -3 -58 -7 -119 -7 -62 -1 -119 -5 -127 -10 -7 -5 -38
-10 -69 -13 -30 -2 -60 -7 -65 -10 -5 -3 -28 -7 -51 -8 -51 -3 -97 -15 -92
-24 2 -3 -8 -7 -22 -8 -57 -4 -138 -19 -152 -28 -6 -4 -23 -9 -38 -11 -15 -3
-29 -9 -30 -15 -2 -5 -8 -7 -13 -3 -5 3 -9 0 -9 -6 0 -6 -4 -9 -9 -5 -5 3 -15
-1 -23 -8 -7 -8 -19 -12 -25 -10 -7 3 -41 -8 -75 -24 -35 -15 -67 -28 -71 -28
-4 0 -11 -5 -15 -10 -4 -6 -14 -10 -22 -10 -8 0 -17 -2 -20 -5 -3 -3 -23 -14
-45 -26 -22 -11 -39 -25 -38 -31 1 -6 -6 -9 -17 -6 -23 6 -53 -14 -43 -30 4
-6 1 -7 -6 -3 -14 9 -91 -38 -91 -55 0 -5 -5 -7 -12 -3 -8 5 -9 2 -4 -11 5
-14 4 -16 -7 -6 -11 9 -26 -1 -72 -47 -32 -31 -55 -50 -50 -43 18 31 -53 -30
-135 -116 -88 -93 -121 -131 -171 -198 -16 -22 -45 -62 -65 -89 -19 -26 -30
-44 -22 -40 7 5 -4 -11 -24 -35 -21 -24 -35 -47 -33 -51 3 -5 -2 -10 -10 -14
-8 -3 -15 -16 -15 -30 0 -13 -5 -26 -11 -28 -5 -2 -11 -12 -13 -22 -1 -10 -9
-24 -18 -30 -8 -6 -14 -19 -12 -29 1 -9 -2 -15 -7 -12 -4 3 -12 -7 -15 -22 -4
-15 -14 -38 -21 -50 -8 -12 -11 -28 -7 -34 4 -8 3 -9 -4 -5 -10 6 -49 -62 -57
-99 -1 -5 -7 -23 -14 -38 -6 -16 -8 -34 -4 -40 3 -7 2 -9 -2 -4 -8 7 -30 -43
-39 -88 -2 -11 -9 -40 -16 -64 -6 -23 -9 -50 -6 -58 3 -8 2 -11 -4 -8 -8 5
-18 -28 -24 -85 -1 -14 -6 -31 -10 -38 -4 -6 -9 -28 -11 -49 -11 -88 -16 -121
-26 -169 -5 -28 -12 -106 -14 -175 -3 -68 -7 -158 -10 -199 -8 -107 -12 -280
-7 -285 4 -4 7 -55 11 -208 0 -32 4 -56 9 -54 4 3 7 -34 7 -81 0 -99 4 -144
14 -138 3 2 8 -33 9 -77 2 -45 7 -88 11 -97 4 -8 9 -37 10 -65 2 -27 6 -56 11
-65 4 -8 11 -39 15 -68 4 -28 10 -50 13 -48 4 2 8 -21 9 -52 2 -30 9 -62 15
-70 10 -12 10 -14 1 -9 -8 5 -7 -2 2 -20 8 -15 15 -43 15 -61 0 -23 4 -31 12
-26 7 4 8 3 4 -4 -8 -14 3 -104 13 -98 3 2 7 -10 8 -27 3 -43 20 -55 81 -61
30 -3 60 -10 67 -16 7 -6 43 -12 80 -13 37 -2 70 -9 74 -15 4 -7 40 -13 87
-15 43 -2 89 -8 100 -15 12 -6 48 -13 80 -14 33 -2 64 -8 69 -15 6 -7 44 -13
90 -15 46 -2 86 -8 93 -15 7 -7 23 -13 35 -14 76 -3 109 -8 120 -17 6 -6 48
-12 92 -13 47 -2 85 -9 93 -16 7 -7 33 -14 58 -14 77 -2 85 -4 92 -16 4 -7 41
-13 89 -15 44 -2 87 -9 94 -15 8 -6 48 -13 91 -15 42 -2 83 -9 90 -16 8 -6 43
-12 79 -14 35 -1 71 -7 79 -14 8 -7 49 -14 90 -16 42 -2 81 -9 88 -15 12 -12
39 -16 95 -16 9 0 17 -4 17 -9 0 -5 4 -6 10 -3 5 3 18 2 27 -3 10 -5 54 -12
98 -16 43 -4 84 -11 90 -16 6 -5 26 -11 44 -12 18 -1 34 -5 36 -8 2 -3 24 -5
49 -5 25 1 46 -2 46 -6 0 -8 39 -4 47 5 13 13 8 46 -14 85 -14 24 -19 40 -12
36 8 -5 5 2 -6 15 -12 14 -14 20 -5 15 9 -5 7 1 -5 15 -12 14 -14 20 -5 15 13
-8 13 -7 1 8 -7 9 -10 17 -6 17 5 0 0 9 -10 20 -10 11 -15 20 -11 20 3 0 0 13
-9 30 -8 16 -14 33 -13 37 1 4 -3 19 -9 33 -6 14 -14 32 -17 40 -4 8 -19 39
-35 67 -16 29 -25 50 -20 47 10 -6 -27 85 -42 103 -6 6 -13 27 -16 45 -2 18
-12 42 -21 52 -10 11 -11 16 -4 12 11 -7 12 -4 3 12 -6 12 -16 24 -21 27 -6 4
-8 10 -5 15 7 12 -5 61 -14 56 -4 -3 -8 3 -9 12 -3 31 -8 47 -16 60 -4 7 -10
28 -13 45 -3 18 -8 34 -12 37 -3 3 -8 19 -10 35 -2 17 -9 42 -17 58 -8 15 -12
27 -10 27 3 0 0 15 -5 33 -6 17 -12 43 -15 57 -3 14 -9 26 -14 28 -5 2 -7 9
-4 17 3 7 -2 30 -12 51 -10 20 -18 50 -19 65 -1 15 -8 36 -16 45 -12 16 -12
17 1 9 12 -7 13 -6 4 6 -5 8 -10 21 -9 29 1 8 -3 29 -8 45 -15 56 -27 112 -29
143 -1 6 -6 12 -12 12 -6 0 -4 5 4 10 8 5 10 10 4 10 -6 0 -11 6 -11 13 -2 24
-10 72 -16 87 -3 8 -7 31 -10 50 -5 48 -10 64 -22 72 -6 5 -5 8 2 8 7 0 10 6
8 13 -3 6 -7 37 -9 69 -2 31 -7 62 -11 68 -4 7 -9 60 -12 119 -2 58 -5 122 -8
141 -9 71 -5 234 6 255 5 9 5 25 -1 43 -6 18 -4 49 3 65 5 11 3 17 -5 17 -10
0 -9 3 1 9 8 5 16 24 17 43 2 18 6 47 9 63 3 17 8 42 9 56 2 14 9 35 15 47 6
12 9 22 6 22 -3 0 -1 9 5 20 8 15 8 20 -2 20 -9 0 -9 3 -2 8 12 8 28 43 26 55
-1 4 3 7 8 7 6 0 10 9 10 19 0 11 5 23 11 26 6 4 8 13 5 20 -3 8 -1 15 3 17 4
2 22 31 41 65 18 35 37 60 43 56 6 -4 7 -1 2 6 -4 7 1 20 11 31 40 40 43 47
31 61 -7 8 -8 10 -3 6 5 -4 21 6 35 21 14 16 34 32 44 35 11 4 21 16 24 27 3
11 9 17 14 14 5 -3 9 0 9 6 0 6 3 9 8 7 4 -3 25 13 47 34 25 25 47 38 58 35 9
-2 15 0 12 4 -3 5 11 14 30 21 19 7 35 17 35 21 0 4 9 8 19 8 11 0 27 7 35 16
9 8 16 13 16 9 0 -3 14 1 30 10 17 9 30 13 30 10 0 -3 11 2 25 11 14 9 25 13
25 9 0 -4 7 -2 15 5 8 7 15 9 15 5 0 -4 12 0 26 10 15 9 23 12 19 5 -5 -8 -2
-9 11 -2 44 22 71 31 104 34 19 1 46 9 60 18 21 13 23 13 15 0 -7 -12 -6 -13
6 -4 8 6 37 12 64 14 84 5 91 6 101 12 5 3 43 6 84 7 41 2 81 6 90 10 19 9 71
8 87 -2 6 -4 14 -4 17 1 6 10 96 10 113 -1 6 -4 14 -4 17 1 3 5 47 7 98 6 100
-4 124 -6 134 -17 4 -3 15 -2 25 4 14 7 19 6 19 -3 0 -10 2 -10 9 1 7 11 9 11
14 0 4 -11 6 -11 6 -1 1 9 6 10 20 3 10 -6 55 -13 100 -17 102 -8 109 -9 117
-17 4 -3 14 -2 24 3 10 5 21 6 25 2 3 -4 11 -8 16 -8 5 -1 10 -3 12 -4 4 -4
59 -8 149 -12 49 -1 88 -6 88 -10 0 -4 7 -5 16 -1 9 3 19 1 23 -4 5 -9 78 -20
146 -23 28 -2 89 10 94 18 3 5 13 8 21 7 26 -4 60 14 60 31 0 21 -35 65 -45
56 -5 -4 -5 2 -1 13 4 11 4 16 0 12 -4 -4 -12 -3 -18 2 -24 20 -106 59 -100
48 3 -7 -1 -4 -9 5 -8 10 -29 19 -47 21 -17 2 -35 9 -38 14 -11 17 -153 75
-168 69 -8 -3 -12 -2 -9 4 3 5 -23 22 -57 38 -35 16 -81 37 -103 47 -22 10
-43 19 -47 19 -3 1 -10 4 -14 9 -12 12 -26 8 -19 -5 4 -7 0 -5 -8 5 -8 10 -24
19 -35 20 -11 0 -18 5 -16 9 5 7 -10 12 -28 9 -3 0 -39 13 -79 29 -39 17 -78
30 -86 30 -8 0 -27 7 -43 15 -16 8 -42 16 -58 18 -15 2 -34 7 -42 12 -8 5 -43
19 -77 30 -45 15 -66 18 -74 11 -9 -8 -10 -7 -4 2 4 9 2 12 -6 11 -8 -2 -24 2
-36 9 -13 7 -23 10 -23 6 0 -3 -11 1 -25 10 -13 9 -35 16 -49 16 -14 0 -37 5
-53 11 -15 6 -41 13 -58 16 -16 3 -38 9 -47 14 -10 5 -18 7 -18 4 0 -3 -8 -1
-17 4 -10 5 -43 12 -73 16 -30 4 -62 10 -70 14 -8 4 -34 7 -57 7 -22 -1 -39 2
-36 7 2 4 -2 7 -9 8 -7 0 -20 2 -28 4 -41 10 -77 16 -115 19 -23 1 -48 6 -55
11 -8 5 -11 4 -7 -2 3 -5 0 -10 -8 -10 -8 0 -12 4 -9 9 7 10 15 9 -96 14 -52
3 -110 9 -127 14 -20 5 -35 5 -39 -1 -4 -6 -11 -6 -19 1 -10 8 -15 8 -20 0 -5
-8 -11 -8 -21 1 -8 6 -14 8 -14 5 0 -4 -9 -2 -19 4 -12 6 -22 6 -26 1 -5 -9
-86 -7 -180 3 -16 2 -33 -2 -37 -8 -5 -8 -8 -7 -8 2 0 8 -5 10 -12 6 -17 -11
-48 -12 -42 -2 6 10 -10 11 -19 1z"/>
<path d="M4765 6752 c-16 -2 -36 -9 -44 -15 -12 -10 -13 -9 -7 1 7 11 4 12
-12 3 -12 -6 -32 -12 -46 -13 -15 -1 -26 -6 -26 -10 0 -4 -3 -7 -7 -6 -16 4
-73 -14 -73 -23 0 -5 -3 -8 -7 -7 -14 4 -53 -13 -53 -23 0 -5 -7 -9 -15 -9
-12 0 -65 -30 -100 -57 -5 -5 -23 -17 -40 -27 -39 -25 -66 -56 -59 -68 3 -4 1
-7 -5 -6 -14 4 -112 -102 -105 -113 3 -5 0 -9 -6 -9 -6 0 -8 -4 -5 -10 3 -5 1
-10 -4 -10 -6 0 -10 -3 -9 -7 1 -5 -11 -34 -26 -67 -62 -132 -86 -295 -60
-416 7 -30 13 -55 14 -55 1 0 3 -11 4 -25 4 -42 16 -81 24 -76 4 2 8 -8 9 -22
4 -64 12 -90 39 -147 15 -33 29 -63 29 -67 0 -3 10 -18 22 -31 12 -14 19 -28
16 -31 -4 -3 -1 -6 6 -6 7 0 10 -4 7 -8 -6 -10 69 -94 77 -86 3 3 4 -2 1 -13
-3 -12 12 -35 45 -70 27 -28 46 -54 43 -58 -4 -4 -2 -5 4 -3 11 3 85 -69 111
-109 9 -13 27 -26 41 -30 14 -3 43 -23 64 -45 20 -21 44 -38 53 -38 9 0 14 -3
12 -7 -3 -5 13 -21 35 -36 22 -16 37 -22 33 -15 -3 7 0 5 8 -5 9 -10 18 -18
21 -18 23 3 36 0 32 -7 -2 -4 4 -14 16 -21 16 -10 19 -10 12 1 -10 16 25 -10
42 -31 8 -11 13 -11 18 -2 6 9 11 8 20 -4 6 -9 18 -17 26 -19 8 -2 28 -8 44
-15 16 -6 31 -9 34 -6 3 3 13 -2 23 -11 9 -8 26 -17 36 -19 10 -2 19 -4 21 -5
1 -2 5 -3 10 -5 4 -1 14 -5 23 -9 9 -4 32 -8 52 -9 19 -1 33 -5 30 -9 -2 -5
-1 -8 4 -9 4 0 17 -2 28 -5 11 -2 34 -5 50 -7 17 -2 35 -6 42 -10 6 -4 14 -1
16 5 4 10 6 10 6 0 1 -7 6 -10 11 -7 6 3 10 2 10 -2 0 -8 226 -11 240 -4 3 2
19 4 35 6 17 2 44 6 60 10 17 4 36 7 43 7 6 1 12 5 12 9 0 4 9 6 20 4 11 -2
22 1 25 6 4 5 11 7 16 4 5 -4 9 -2 9 2 0 5 12 10 26 11 15 1 32 6 39 12 6 5
15 7 18 3 4 -3 7 -1 7 6 0 7 5 9 10 6 6 -3 10 -1 10 5 0 7 7 10 15 6 8 -3 15
-1 15 5 0 6 4 8 9 4 6 -3 14 3 20 12 5 10 12 17 15 16 12 -5 42 11 59 31 10
12 15 14 11 7 -5 -9 4 -7 22 6 50 37 99 87 111 116 7 15 20 27 28 27 9 0 13 5
10 10 -3 6 0 10 8 10 8 0 21 8 28 18 12 15 12 16 -1 7 -9 -5 -7 -2 3 8 12 10
14 17 7 17 -8 0 -6 7 6 18 10 9 20 24 22 32 2 8 11 24 20 34 10 11 11 16 3 11
-10 -6 -10 -2 2 16 8 13 13 32 12 42 -2 9 0 17 5 17 5 0 7 8 6 17 -2 9 5 39
15 65 9 27 13 45 7 42 -7 -5 -8 -2 -2 7 4 8 9 20 10 26 1 7 5 31 9 53 5 30 3
40 -7 40 -10 0 -9 3 2 10 13 9 13 10 0 10 -13 0 -13 1 0 10 13 9 13 10 0 10
-13 0 -13 1 0 10 8 5 10 10 5 10 -6 0 -11 10 -11 23 -1 20 -10 92 -17 127 -1
8 -6 20 -10 27 -4 6 -8 23 -9 37 -1 14 -5 26 -9 26 -6 0 -16 25 -24 60 -2 8
-9 16 -15 18 -5 2 -8 8 -4 13 3 5 0 9 -7 9 -7 0 -9 3 -6 7 4 3 -1 15 -10 26
-10 11 -12 17 -5 13 6 -4 3 9 -9 28 -12 20 -26 33 -32 29 -6 -3 -7 -1 -3 5 4
7 2 12 -4 12 -6 0 -9 4 -6 9 7 10 -39 73 -47 65 -4 -4 -5 3 -2 14 2 13 -1 21
-8 19 -6 -1 -11 3 -12 9 0 7 -20 34 -45 61 -25 27 -63 70 -84 96 -22 26 -46
47 -53 47 -7 0 -13 5 -13 11 0 6 -7 9 -15 5 -9 -3 -19 3 -25 15 -6 11 -16 16
-22 13 -7 -5 -8 -2 -4 5 8 13 -62 84 -74 76 -4 -2 -21 9 -40 26 -20 19 -39 28
-48 24 -9 -3 -14 -3 -10 0 3 4 -2 15 -13 26 -22 22 -34 25 -23 7 4 -7 -6 -2
-22 13 -16 14 -38 32 -48 40 -18 12 -19 12 -12 -1 4 -9 1 -8 -7 3 -8 9 -19 17
-24 17 -6 0 -22 9 -36 20 -14 11 -34 21 -44 23 -11 1 -33 11 -48 21 -15 10
-24 13 -20 7 3 -6 -9 -3 -27 8 -33 18 -95 37 -110 33 -5 -1 -8 2 -8 6 0 5 -6
9 -12 9 -7 0 -39 6 -70 12 -32 7 -62 10 -67 7 -5 -4 -12 -2 -15 3 -10 16 -80
25 -211 25 -71 1 -143 -1 -160 -2z"/>
<path d="M6666 6521 c-17 -19 -21 -41 -8 -41 5 0 9 -30 10 -66 1 -36 5 -70 8
-75 3 -5 8 -21 10 -35 3 -15 15 -45 26 -68 12 -22 23 -46 24 -53 7 -39 37
-112 44 -108 5 3 7 -3 5 -14 -2 -10 7 -42 21 -71 13 -28 26 -63 28 -76 3 -13
7 -27 9 -32 3 -4 8 -27 12 -52 4 -24 11 -53 17 -64 6 -12 13 -39 16 -61 2 -22
7 -47 11 -55 4 -8 9 -49 10 -90 2 -41 6 -82 10 -90 12 -24 5 -283 -8 -307 -6
-12 -11 -38 -11 -58 0 -40 -18 -124 -31 -140 -4 -6 -10 -23 -13 -39 -3 -15
-10 -34 -17 -42 -6 -7 -9 -21 -5 -29 3 -9 2 -13 -4 -10 -6 3 -10 -1 -10 -10 0
-8 -11 -33 -25 -55 -14 -22 -22 -40 -18 -40 3 0 -4 -11 -17 -24 -13 -15 -20
-31 -16 -41 3 -9 2 -14 -3 -10 -14 8 -54 -52 -45 -67 4 -7 4 -10 -1 -6 -4 4
-19 -5 -31 -20 -23 -26 -28 -37 -25 -55 1 -5 -3 -6 -8 -3 -13 8 -73 -75 -66
-92 2 -7 1 -11 -4 -7 -5 3 -16 -1 -24 -9 -8 -8 -18 -12 -22 -8 -5 4 -5 -1 -2
-11 4 -11 3 -16 -3 -12 -6 3 -13 -1 -16 -9 -3 -9 -11 -13 -17 -9 -6 4 -8 0 -4
-11 4 -9 3 -15 -2 -12 -5 3 -23 -11 -40 -31 -17 -20 -31 -33 -31 -29 0 4 -6 2
-12 -4 -7 -6 -34 -26 -60 -46 -27 -19 -48 -39 -48 -44 0 -6 -6 -10 -13 -10 -7
0 -28 -13 -47 -30 -19 -16 -40 -29 -46 -30 -14 0 -75 -46 -69 -51 2 -3 -5 -6
-17 -6 -11 -1 -30 -11 -42 -22 -12 -12 -27 -21 -33 -21 -13 0 -140 -66 -162
-84 -11 -8 -13 -8 -8 1 4 6 -13 1 -38 -12 -25 -14 -49 -25 -53 -26 -21 -5 -62
-26 -58 -30 2 -2 -9 -5 -26 -6 -17 -1 -35 -7 -42 -12 -6 -5 -51 -23 -101 -40
-49 -17 -97 -34 -105 -38 -8 -3 -26 -7 -40 -8 -14 -1 -54 -12 -90 -25 -36 -13
-74 -24 -85 -25 -11 -1 -28 -5 -37 -9 -21 -10 -46 -14 -81 -15 -16 -1 -26 -5
-23 -9 3 -5 -5 -8 -17 -7 -12 1 -35 -2 -52 -7 -16 -6 -48 -12 -70 -14 -22 -2
-49 -6 -60 -8 -11 -3 -26 -5 -33 -5 -7 -1 -11 -4 -9 -8 3 -5 -27 -9 -65 -10
-39 -2 -76 -7 -83 -13 -8 -6 -16 -5 -25 3 -10 10 -11 9 -5 -3 8 -13 7 -13 -8
-1 -9 7 -17 9 -17 4 0 -5 -10 -9 -22 -10 -13 0 -49 -1 -81 -2 -32 0 -56 -4
-54 -8 3 -5 -69 -9 -160 -11 -91 -1 -170 -5 -176 -9 -13 -8 -57 -11 -57 -3 0
9 -112 15 -440 25 -200 6 -310 11 -320 15 -3 1 -13 1 -23 0 -10 -1 -24 3 -30
8 -7 6 -50 13 -97 16 -46 4 -86 9 -89 11 -2 3 -11 -1 -19 -8 -11 -8 -14 -8 -9
0 9 14 -23 22 -108 27 -70 5 -88 8 -95 18 -3 3 -34 9 -69 12 -35 3 -69 10 -76
16 -11 9 -81 21 -135 23 -14 0 -27 4 -30 7 -3 4 -32 10 -64 14 -33 3 -63 11
-67 17 -3 6 -23 12 -42 14 -20 2 -46 9 -59 16 -12 6 -36 12 -53 13 -18 0 -38
6 -46 13 -8 7 -41 14 -73 17 -32 2 -62 8 -65 13 -3 5 -24 10 -46 12 -22 1 -47
9 -56 17 -8 8 -31 14 -50 14 -19 0 -40 5 -47 12 -7 7 -28 13 -48 13 -20 1 -39
6 -42 11 -9 12 -92 19 -92 7 0 -16 35 -108 43 -114 5 -3 8 -9 7 -13 -4 -16 13
-66 21 -61 5 4 6 -1 3 -9 -7 -18 30 -99 41 -89 4 5 5 3 2 -3 -6 -11 13 -88 26
-100 4 -4 7 -16 7 -26 0 -11 4 -16 10 -13 6 3 7 -1 4 -9 -3 -9 -1 -16 5 -16 6
0 11 -13 11 -28 0 -15 4 -32 10 -38 5 -5 11 -22 12 -36 1 -15 6 -24 10 -22 4
3 8 -4 8 -14 0 -11 7 -33 15 -48 8 -16 15 -36 15 -44 0 -9 4 -20 8 -25 5 -6
17 -36 27 -67 10 -31 23 -54 28 -51 6 3 7 1 3 -5 -6 -10 19 -86 45 -134 5 -10
9 -25 9 -33 0 -9 3 -14 8 -12 4 3 8 -7 9 -22 2 -29 37 -114 44 -106 3 2 6 -10
7 -27 2 -18 7 -37 12 -43 5 -7 7 -15 3 -18 -3 -4 -1 -7 5 -7 7 0 12 -10 12
-23 0 -13 4 -27 9 -32 4 -6 16 -32 26 -60 10 -27 22 -54 26 -60 4 -5 15 -36
24 -68 9 -31 20 -55 23 -53 4 2 8 -7 9 -21 0 -14 5 -35 11 -47 30 -66 42 -98
42 -109 0 -8 11 -37 25 -65 14 -29 25 -59 25 -68 0 -9 5 -12 12 -8 7 4 8 3 4
-4 -4 -7 2 -33 13 -58 12 -26 21 -53 21 -60 0 -8 4 -22 9 -32 22 -43 46 -113
42 -120 -1 -1 5 -10 14 -18 8 -9 13 -19 10 -24 -3 -4 2 -21 10 -36 8 -16 15
-35 15 -42 0 -7 4 -11 8 -8 4 2 9 -9 10 -26 1 -17 13 -53 25 -82 23 -51 40
-95 82 -214 12 -34 25 -59 30 -55 4 5 5 3 1 -4 -4 -7 -2 -20 3 -30 5 -10 26
-61 46 -113 20 -52 43 -109 51 -127 8 -17 14 -36 14 -43 0 -6 4 -9 9 -6 5 3 9
0 8 -7 -1 -39 4 -58 15 -51 6 4 8 3 5 -3 -8 -13 14 -84 25 -77 5 3 8 2 7 -3
-5 -29 2 -63 13 -57 7 4 8 3 4 -4 -4 -6 3 -33 14 -59 12 -26 25 -57 29 -68 5
-11 16 -37 25 -58 9 -21 16 -44 16 -53 0 -8 7 -17 15 -20 8 -4 12 -11 8 -17
-3 -6 -1 -7 5 -3 11 7 75 17 120 19 12 1 22 4 22 7 0 4 6 7 13 7 6 1 37 6 67
13 30 6 76 13 101 14 25 2 52 6 58 11 11 6 53 14 99 17 6 1 12 4 12 8 0 4 6 7
13 8 6 0 35 3 62 5 28 3 57 7 65 11 8 3 31 7 50 9 20 2 41 7 48 11 12 7 51 16
85 19 9 1 17 4 17 7 0 4 6 7 13 8 14 1 52 9 77 17 10 3 29 8 42 11 38 8 53 12
56 14 1 2 5 3 10 4 4 1 12 4 17 7 6 3 22 5 38 4 15 -1 27 1 27 5 0 7 9 9 55
12 14 1 25 6 25 12 0 5 3 6 6 3 4 -3 16 -1 28 6 11 6 28 12 36 13 14 2 40 11
115 38 17 6 32 11 35 11 3 0 11 4 19 9 10 7 12 6 6 -3 -4 -7 4 -5 19 4 14 10
26 13 26 9 0 -5 5 -2 10 6 8 12 10 12 10 1 0 -10 3 -11 13 -2 8 6 17 8 20 4 4
-3 7 0 7 7 0 7 3 10 7 7 3 -4 13 -1 21 6 11 8 14 8 9 0 -4 -6 10 -3 30 7 21
10 41 16 45 13 5 -2 8 0 8 5 0 5 6 9 13 9 6 0 30 8 52 18 22 10 47 19 55 19 8
1 25 7 36 14 12 6 24 8 28 5 3 -3 6 -1 6 6 0 7 4 10 9 6 5 -3 15 1 23 8 7 8
21 13 31 11 9 -1 17 2 17 6 0 5 9 7 20 5 11 -2 20 0 20 4 0 8 67 26 83 23 4
-1 7 3 7 9 0 5 5 7 10 4 6 -3 10 -2 10 3 0 8 25 21 52 26 4 0 13 7 20 14 6 6
20 12 29 12 10 0 21 5 24 10 3 6 15 10 26 10 11 0 22 6 25 14 3 8 14 13 25 11
10 -2 19 0 19 5 0 5 11 12 25 16 14 3 25 10 25 16 0 5 5 6 10 3 6 -3 10 -1 10
6 0 8 5 7 17 -2 11 -10 14 -10 9 -1 -5 8 0 12 13 12 11 0 36 9 56 20 19 11 38
21 43 22 4 2 6 6 5 10 -3 8 3 10 30 12 6 1 18 8 25 16 12 13 13 13 7 0 -4 -8
1 -6 9 4 10 12 16 15 16 7 0 -7 9 -3 21 10 11 13 17 17 13 10 -5 -10 3 -8 22
5 16 12 44 27 62 35 17 8 32 17 32 21 0 5 9 8 20 8 11 0 20 5 20 10 0 6 7 10
16 10 8 0 13 4 10 8 -2 4 4 9 15 9 10 1 26 9 34 17 8 8 25 18 37 22 12 3 30
16 41 28 10 11 15 14 11 7 -4 -9 7 -4 27 9 19 13 36 28 37 32 2 5 8 6 13 2 5
-3 9 1 9 8 0 9 3 9 10 -2 8 -13 10 -12 10 3 0 9 5 17 11 17 13 0 40 26 34 32
-3 3 2 5 10 5 8 0 11 -5 8 -11 -4 -6 12 6 35 27 44 38 58 46 47 24 -4 -6 0 -4
8 6 8 9 19 17 25 17 5 0 13 7 16 16 3 8 11 12 17 8 8 -4 9 -3 5 4 -4 8 0 12
11 12 15 0 16 2 3 11 -12 8 -12 9 5 7 26 -3 77 31 68 46 -3 6 -3 8 2 4 4 -4
15 -2 23 5 13 10 14 9 8 -3 -4 -8 4 -2 18 13 14 15 26 25 26 22 0 -4 12 7 26
24 14 17 29 29 34 26 4 -2 16 5 26 18 l19 22 -25 -20 -25 -20 19 23 c11 12 21
20 24 17 9 -9 58 24 72 49 7 14 16 24 18 21 3 -3 11 4 19 15 8 11 21 20 29 20
8 0 12 4 9 10 -3 5 1 10 10 10 9 0 13 4 10 10 -3 5 0 10 7 10 7 0 24 12 38 27
14 15 18 23 10 18 -8 -4 5 11 29 34 28 26 51 39 60 36 9 -3 12 -3 9 1 -4 3 6
17 23 31 16 14 29 30 29 37 0 6 18 27 40 46 103 89 164 155 156 169 -2 3 2 12
10 19 8 7 14 10 14 7 0 -3 14 10 30 29 17 19 29 38 28 43 -2 4 17 27 40 51 24
23 40 42 37 42 -4 0 -2 6 4 13 6 8 9 17 6 20 -3 4 -2 5 1 2 14 -10 49 43 45
68 0 4 9 7 22 7 16 0 18 3 9 9 -11 7 -11 9 2 14 9 4 16 14 16 22 0 9 4 13 10
10 6 -3 7 1 4 9 -3 9 -2 16 3 16 4 0 14 9 21 21 11 17 11 20 0 14 -7 -4 -4 2
8 12 19 17 28 32 33 58 2 6 8 17 15 25 6 8 18 27 25 42 8 15 19 24 25 21 6 -4
5 1 -3 10 -12 15 -11 17 4 17 10 0 16 3 12 6 -3 4 9 36 28 73 18 36 35 73 37
81 2 8 11 21 21 28 15 12 16 16 5 30 -7 9 -8 13 -3 10 6 -4 18 7 28 23 10 18
12 27 4 23 -6 -4 -4 2 6 13 9 11 14 23 10 26 -3 4 -1 7 5 7 6 0 9 9 7 20 -2
11 0 20 4 20 13 0 45 84 45 122 0 21 6 40 13 42 7 3 13 16 13 28 0 13 7 34 16
46 8 12 12 22 8 22 -3 0 -2 6 3 13 6 6 9 20 8 30 -2 9 1 15 5 12 5 -3 12 11
17 32 4 21 8 40 8 43 1 3 5 28 9 55 4 28 13 66 20 85 13 39 14 119 1 140 -5 9
-4 11 4 6 8 -5 10 0 7 18 -3 14 -1 28 4 31 5 3 6 15 2 26 -4 11 -5 46 -2 79 4
37 2 61 -5 64 -5 2 -4 5 3 5 10 1 10 6 2 21 -6 11 -7 20 -3 20 12 0 2 84 -11
92 -8 6 -7 8 2 8 6 0 12 11 12 25 0 14 -6 25 -12 25 -9 0 -9 3 1 9 12 7 12 13
3 24 -7 7 -9 17 -5 20 3 4 2 7 -3 7 -5 0 -10 19 -11 43 -6 110 -9 137 -16 137
-5 0 -5 5 -2 10 4 6 -1 33 -10 61 -9 27 -14 56 -12 63 3 8 3 17 -1 20 -3 4 -7
14 -8 22 -1 9 -6 23 -10 32 -4 9 -9 25 -11 35 -2 10 -8 28 -15 40 -6 12 -13
32 -14 43 -1 12 -9 35 -18 52 -8 16 -12 32 -9 36 4 3 1 6 -5 6 -6 0 -9 9 -7
20 2 11 0 20 -6 20 -5 0 -8 3 -8 8 4 22 -2 42 -11 37 -5 -3 -7 0 -5 7 3 8 -4
24 -15 36 -12 12 -15 22 -9 22 8 0 6 7 -4 18 -10 10 -14 22 -10 25 3 4 1 7 -6
7 -7 0 -10 4 -6 9 3 5 0 15 -7 23 -7 7 -14 20 -16 28 -2 7 -12 26 -23 42 -11
15 -17 28 -13 28 4 0 -5 14 -21 30 -16 17 -26 30 -22 30 4 0 -3 19 -15 43 -12
23 -21 46 -20 50 1 5 -2 6 -7 3 -5 -3 -16 10 -25 29 -10 19 -26 44 -38 54 -11
11 -17 24 -14 29 3 5 -14 31 -38 58 -25 26 -43 51 -40 55 2 4 -3 12 -11 19 -8
7 -12 16 -9 21 3 5 -2 9 -11 9 -9 0 -13 5 -10 10 3 6 2 10 -4 10 -5 0 -13 9
-16 20 -4 12 -15 20 -28 20 -18 0 -19 2 -7 10 11 7 11 10 2 10 -7 0 -10 5 -7
10 3 6 -2 10 -11 10 -10 0 -15 3 -11 6 7 7 -28 48 -115 135 -37 36 -65 69 -61
73 3 3 -2 6 -12 6 -10 0 -16 3 -12 6 8 8 -39 54 -55 54 -9 0 -9 3 2 10 13 9
13 10 0 11 -8 1 -19 1 -23 0 -5 -1 -6 3 -3 8 4 5 0 12 -6 14 -10 4 -10 6 -1 6
7 1 -23 37 -67 82 -43 44 -84 78 -89 74 -6 -3 -11 -2 -11 3 0 5 -11 14 -24 20
-20 9 -27 7 -40 -7z m224 -4294 c0 -2 -10 -12 -22 -23 l-23 -19 19 23 c18 21
26 27 26 19z"/>
</g>
</svg>
