<?xml version="1.0" encoding="UTF-8"?>
<svg version="1.1" xmlns="http://www.w3.org/2000/svg" width="382" height="225">
<path d="M0 0 C20.17570881 19.70335774 32.85317521 47.11352726 33.19165039 75.43261719 C33.26944111 108.41823864 22.94792391 135.14745874 -0.11279297 158.97387695 C-19.26164847 178.11713828 -46.57728425 189.25499372 -73.61621094 189.49682617 C-105.21938129 189.18016114 -132.58846248 178.47622815 -155.36279297 156.53637695 C-176.5571169 134.52030217 -186.69060211 105.63702807 -186.26513672 75.3371582 C-185.48647157 51.17919273 -176.4666872 27.99945994 -161.05029297 9.47387695 C-160.31423828 8.56250977 -159.57818359 7.65114258 -158.81982422 6.7121582 C-140.04623469 -15.33187238 -112.7913793 -27.6322159 -84.30029297 -30.21362305 C-53.30051963 -32.07293333 -22.68683827 -21.23512091 0 0 Z M-145.05029297 -1.52612305 C-145.75927734 -0.9847168 -146.46826172 -0.44331055 -147.19873047 0.11450195 C-153.41557935 5.13873085 -158.09946174 11.4997186 -162.85058594 17.86987305 C-163.81815137 19.16350449 -164.80780894 20.44059555 -165.80419922 21.7121582 C-173.57813117 32.28216377 -178.75550135 46.65338826 -181.05029297 59.47387695 C-181.23205078 60.4793457 -181.41380859 61.48481445 -181.60107422 62.52075195 C-183.2781358 77.27889386 -183.28172413 93.16684932 -179.05029297 107.47387695 C-178.85161621 108.14676758 -178.65293945 108.8196582 -178.44824219 109.51293945 C-173.97752396 124.2478909 -167.18729205 136.78924442 -157.05029297 148.47387695 C-156.37482422 149.2937207 -155.69935547 150.11356445 -155.00341797 150.95825195 C-146.39063484 161.0798438 -135.98710174 168.66253584 -124.05029297 174.47387695 C-122.72771484 175.13323242 -122.72771484 175.13323242 -121.37841797 175.8059082 C-96.23705299 187.83161891 -67.32391826 189.02618554 -40.96435547 180.15356445 C-12.78454114 169.90603431 7.92766709 149.29336156 20.95117188 122.64770508 C26.33771883 110.92110017 29.13748426 98.31473218 29.94970703 85.47387695 C30.03091797 84.1899707 30.03091797 84.1899707 30.11376953 82.88012695 C30.9902239 54.51487648 20.26009755 28.67091327 1.94970703 7.47387695 C1.30517578 6.7262207 0.66064453 5.97856445 -0.00341797 5.20825195 C-17.76915914 -13.79336686 -44.72246277 -25.6875835 -70.62451172 -26.7644043 C-98.90843543 -27.37963368 -122.83758552 -19.17114699 -145.05029297 -1.52612305 Z " fill="#000000" transform="translate(264.05029296875,33.526123046875)"/>
<path d="M0 0 C16.17 0 32.34 0 49 0 C49.495 7.92 49.495 7.92 50 16 C49.01 16 48.02 16 47 16 C46.65388672 15.06027344 46.65388672 15.06027344 46.30078125 14.1015625 C45.81158203 12.87566406 45.81158203 12.87566406 45.3125 11.625 C44.99925781 10.81289062 44.68601563 10.00078125 44.36328125 9.1640625 C42.57658514 6.3278744 41.16497776 6.0057148 38 5 C35.29734266 4.72795896 35.29734266 4.72795896 32.48046875 4.8046875 C31.45888672 4.81113281 30.43730469 4.81757812 29.38476562 4.82421875 C28.32966797 4.84097656 27.27457031 4.85773438 26.1875 4.875 C24.57584961 4.88853516 24.57584961 4.88853516 22.93164062 4.90234375 C20.28753146 4.92584694 17.64388128 4.95870425 15 5 C16.93384305 8.25218915 18.87270994 11.50135505 20.8125 14.75 C21.35970703 15.67039062 21.90691406 16.59078125 22.47070312 17.5390625 C23.00244141 18.42851563 23.53417969 19.31796875 24.08203125 20.234375 C24.56905518 21.05131836 25.0560791 21.86826172 25.55786133 22.70996094 C26.93747725 24.90071721 28.41593024 26.95365307 30 29 C28.27657488 32.85403309 25.84198443 36.16196067 23.375 39.5625 C22.97410156 40.12001953 22.57320312 40.67753906 22.16015625 41.25195312 C18.1283948 46.85023489 14.05980876 52.4220488 10 58 C14.57151738 58.04971951 19.14287468 58.08586976 23.71459961 58.10986328 C25.26736191 58.11987381 26.82010558 58.13348634 28.37280273 58.15087891 C30.61446755 58.17534652 32.85588149 58.18653268 35.09765625 58.1953125 C35.78336197 58.20563507 36.46906769 58.21595764 37.17555237 58.22659302 C41.86439175 58.22766595 45.63755243 57.61408838 50 56 C51.46664648 53.58500543 51.46664648 53.58500543 52 51 C52.495 50.01 52.495 50.01 53 49 C53.99 49.33 54.98 49.66 56 50 C54.35 55.61 52.7 61.22 51 67 C33.51 67 16.02 67 -2 67 C2.49947971 59.12591051 2.49947971 59.12591051 4.8046875 56.09765625 C5.30613281 55.43443359 5.80757813 54.77121094 6.32421875 54.08789062 C6.83597656 53.41951172 7.34773438 52.75113281 7.875 52.0625 C8.37902344 51.39798828 8.88304688 50.73347656 9.40234375 50.04882812 C9.90636719 49.38431641 10.41039063 48.71980469 10.9296875 48.03515625 C11.42694336 47.37273926 11.92419922 46.71032227 12.43652344 46.02783203 C13.52053922 44.62186153 14.64148729 43.24389892 15.79003906 41.89013672 C16.3569043 41.20322754 16.92376953 40.51631836 17.5078125 39.80859375 C18.03262207 39.19685303 18.55743164 38.5851123 19.09814453 37.95483398 C20.26458049 35.97258681 20.26458049 35.97258681 19.36645508 33.60961914 C17.89552517 30.80047678 16.32337019 28.11836856 14.62890625 25.4375 C13.97212891 24.39335938 13.31535156 23.34921875 12.63867188 22.2734375 C11.95353516 21.19320312 11.26839844 20.11296875 10.5625 19 C9.20931747 16.85436715 7.8564418 14.70854074 6.50390625 12.5625 C5.90392822 11.61503906 5.3039502 10.66757813 4.68579102 9.69140625 C4.12947998 8.80324219 3.57316895 7.91507812 3 7 C2.1490979 5.65228516 2.1490979 5.65228516 1.28100586 4.27734375 C0 2 0 2 0 0 Z " fill="#000000" transform="translate(113,76)"/>
<path d="M0 0 C0.9375 2.9375 0.9375 2.9375 1 6 C0 7.9375 0 7.9375 -2 9 C-8.33333333 8.66666667 -8.33333333 8.66666667 -11 6 C-13.60280568 6.32041397 -13.60280568 6.32041397 -16 7 C-16.66 9.64 -17.32 12.28 -18 15 C-16.02 15.33 -14.04 15.66 -12 16 C-12.33 18.31 -12.66 20.62 -13 23 C-15.31 23 -17.62 23 -20 23 C-20.10957031 23.76441406 -20.21914062 24.52882813 -20.33203125 25.31640625 C-20.85986328 28.88249094 -21.42609091 32.44104177 -22 36 C-22.29197266 37.90652344 -22.29197266 37.90652344 -22.58984375 39.8515625 C-24.39849781 50.36101981 -27.48532318 59.11571462 -36.16015625 65.81640625 C-42.38998916 69.82413315 -48.65475866 70.90713101 -56 70 C-59.125 68.875 -59.125 68.875 -61 67 C-61.53544229 63.78734627 -61.56570175 61.94283625 -59.875 59.125 C-57.07553259 57.44531955 -55.20195936 57.54257723 -52 58 C-50.66666667 59.33333333 -49.33333333 60.66666667 -48 62 C-45.22783322 61.93238618 -43.6829329 61.51568403 -41.46875 59.84375 C-39.40335837 57.25102434 -38.8812807 54.77085528 -38.0625 51.5625 C-37.8984668 50.92304443 -37.73443359 50.28358887 -37.56542969 49.62475586 C-35.36970013 40.82621338 -33.69959017 31.90476766 -32 23 C-33.98 23 -35.96 23 -38 23 C-37.67 20.69 -37.34 18.38 -37 16 C-34.69 16 -32.38 16 -30 16 C-29.979375 15.01 -29.95875 14.02 -29.9375 13 C-29.16894046 7.74817646 -25.91654479 4.37005017 -22 1 C-15.83621302 -2.82052912 -6.26629414 -4.14047817 0 0 Z " fill="#000000" transform="translate(272,79)"/>
<path d="M0 0 C3.88136584 0.55612455 5.62756918 2.27673138 8.328125 5.03515625 C9.52695312 6.24848633 9.52695312 6.24848633 10.75 7.48632812 C11.575 8.33646484 12.4 9.18660156 13.25 10.0625 C14.09046875 10.91650391 14.9309375 11.77050781 15.796875 12.65039062 C17.87147597 14.76035412 19.93875832 16.87699708 22 19 C24.31 17.35 26.62 15.7 29 14 C32 17.625 32 17.625 32 21 C32.66 21 33.32 21 34 21 C34.49306641 21.94746094 34.49306641 21.94746094 34.99609375 22.9140625 C38.39222915 29.30137407 42.08242507 35.36667438 46.19116211 41.31494141 C47.20391652 42.82815362 48.11128346 44.41076572 49 46 C48.67 46.99 48.34 47.98 48 49 C47.28714844 48.54109375 46.57429688 48.0821875 45.83984375 47.609375 C44.88207031 46.99578125 43.92429688 46.3821875 42.9375 45.75 C41.99777344 45.14671875 41.05804688 44.5434375 40.08984375 43.921875 C36.77415816 41.85952694 33.3994594 39.91907175 30 38 C28.7509002 37.28716209 27.50220476 36.57361518 26.25390625 35.859375 C25.3402832 35.33730469 25.3402832 35.33730469 24.40820312 34.8046875 C20.20410156 32.40234375 20.20410156 32.40234375 16 30 C16 26 16 26 19 22 C12.4 15.4 5.8 8.8 -1 2 C-0.67 1.34 -0.34 0.68 0 0 Z " fill="#000000" transform="translate(34,19)"/>
<path d="M0 0 C9.7129159 2.09977288 19.40502135 4.28243966 29.0625 6.625 C29.93680664 6.83084717 30.81111328 7.03669434 31.71191406 7.2487793 C32.51983398 7.44769775 33.32775391 7.64661621 34.16015625 7.8515625 C34.87824463 8.02510254 35.59633301 8.19864258 36.33618164 8.37744141 C38 9 38 9 39 11 C33.929109 12.28625254 28.85707958 13.56787741 23.78393555 14.84521484 C22.05802797 15.28046488 20.3324392 15.71698108 18.60717773 16.15478516 C16.12826804 16.78360263 13.64825013 17.40786806 11.16796875 18.03125 C10.39599655 18.22811401 9.62402435 18.42497803 8.82865906 18.62780762 C5.8100668 19.38269301 3.12469987 20 0 20 C0 17.36 0 14.72 0 12 C-9.9 12 -19.8 12 -30 12 C-30 11.01 -30 10.02 -30 9 C-20.1 9 -10.2 9 0 9 C0 6.03 0 3.06 0 0 Z " fill="#000000" transform="translate(36,99)"/>
<path d="M0 0 C9.7129159 2.09977288 19.40502135 4.28243966 29.0625 6.625 C29.93680664 6.83084717 30.81111328 7.03669434 31.71191406 7.2487793 C32.51983398 7.44769775 33.32775391 7.64661621 34.16015625 7.8515625 C34.87824463 8.02510254 35.59633301 8.19864258 36.33618164 8.37744141 C38 9 38 9 39 11 C33.929109 12.28625254 28.85707958 13.56787741 23.78393555 14.84521484 C22.05802797 15.28046488 20.3324392 15.71698108 18.60717773 16.15478516 C16.12826804 16.78360263 13.64825013 17.40786806 11.16796875 18.03125 C10.39599655 18.22811401 9.62402435 18.42497803 8.82865906 18.62780762 C5.8100668 19.38269301 3.12469987 20 0 20 C0 17.36 0 14.72 0 12 C-9.9 12 -19.8 12 -30 12 C-30 11.01 -30 10.02 -30 9 C-20.1 9 -10.2 9 0 9 C0 6.03 0 3.06 0 0 Z " fill="#000000" transform="translate(335,97)"/>
<path d="M0 0 C-1.79108846 8.83332263 -8.03755932 16.79342041 -12.92773438 24.22802734 C-14.80047578 27.0820787 -16.5671141 29.89795446 -18 33 C-18.7425 32.319375 -19.485 31.63875 -20.25 30.9375 C-22.70079842 28.77946278 -22.70079842 28.77946278 -24.90576172 29.12670898 C-27.66690274 30.27809642 -29.18537627 31.88090723 -31.2578125 34.03515625 C-32.04800781 34.84404297 -32.83820312 35.65292969 -33.65234375 36.48632812 C-34.46832031 37.33646484 -35.28429688 38.18660156 -36.125 39.0625 C-37.74807509 40.74526564 -39.37545737 42.42389113 -41.0078125 44.09765625 C-41.72598145 44.84539307 -42.44415039 45.59312988 -43.18408203 46.36352539 C-45 48 -45 48 -47 48 C-46.44387545 44.11863416 -44.72326862 42.37243082 -41.96484375 39.671875 C-41.15595703 38.87265625 -40.34707031 38.0734375 -39.51367188 37.25 C-38.66353516 36.425 -37.81339844 35.6 -36.9375 34.75 C-35.65649414 33.48929688 -35.65649414 33.48929688 -34.34960938 32.203125 C-32.23964588 30.12852403 -30.12300292 28.06124168 -28 26 C-28.30679688 25.38640625 -28.61359375 24.7728125 -28.9296875 24.140625 C-30.46484375 21.0703125 -30.46484375 21.0703125 -32 18 C-31.18917969 17.50371094 -30.37835938 17.00742188 -29.54296875 16.49609375 C-24.01762408 13.10627228 -18.51123368 9.69990683 -13.0625 6.1875 C-3.37157534 0 -3.37157534 0 0 0 Z " fill="#000000" transform="translate(79,150)"/>
<path d="M0 0 C1.65 0 3.3 0 5 0 C5 1.32 5 2.64 5 4 C3.35 4 1.7 4 0 4 C0 2.68 0 1.36 0 0 Z " fill="#000000" transform="translate(188,211)"/>
<path d="M0 0 C1.65 0 3.3 0 5 0 C5 1.32 5 2.64 5 4 C3.35 4 1.7 4 0 4 C0 2.68 0 1.36 0 0 Z " fill="#000000" transform="translate(188,203)"/>
<path d="M0 0 C1.65 0 3.3 0 5 0 C5 1.32 5 2.64 5 4 C3.35 4 1.7 4 0 4 C0 2.68 0 1.36 0 0 Z " fill="#000000" transform="translate(188,195)"/>
<path d="M0 0 C1.65 0 3.3 0 5 0 C5 1.32 5 2.64 5 4 C3.35 4 1.7 4 0 4 C0 2.68 0 1.36 0 0 Z " fill="#000000" transform="translate(188,187)"/>
<path d="M0 0 C1.65 0 3.3 0 5 0 C5 1.32 5 2.64 5 4 C3.35 4 1.7 4 0 4 C0 2.68 0 1.36 0 0 Z " fill="#000000" transform="translate(188,179)"/>
<path d="M0 0 C1.65 0 3.3 0 5 0 C5 1.32 5 2.64 5 4 C3.35 4 1.7 4 0 4 C0 2.68 0 1.36 0 0 Z " fill="#000000" transform="translate(188,171)"/>
<path d="M0 0 C1.65 0 3.3 0 5 0 C5 1.32 5 2.64 5 4 C3.35 4 1.7 4 0 4 C0 2.68 0 1.36 0 0 Z " fill="#000000" transform="translate(188,163)"/>
<path d="M0 0 C1.65 0 3.3 0 5 0 C5 1.32 5 2.64 5 4 C3.35 4 1.7 4 0 4 C0 2.68 0 1.36 0 0 Z " fill="#000000" transform="translate(188,155)"/>
<path d="M0 0 C1.65 0 3.3 0 5 0 C5 1.32 5 2.64 5 4 C3.35 4 1.7 4 0 4 C0 2.68 0 1.36 0 0 Z " fill="#000000" transform="translate(188,147)"/>
<path d="M0 0 C1.65 0 3.3 0 5 0 C5 1.32 5 2.64 5 4 C3.35 4 1.7 4 0 4 C0 2.68 0 1.36 0 0 Z " fill="#000000" transform="translate(188,139)"/>
<path d="M0 0 C1.65 0 3.3 0 5 0 C5 1.32 5 2.64 5 4 C3.35 4 1.7 4 0 4 C0 2.68 0 1.36 0 0 Z " fill="#000000" transform="translate(188,131)"/>
<path d="M0 0 C1.65 0 3.3 0 5 0 C5 1.32 5 2.64 5 4 C3.35 4 1.7 4 0 4 C0 2.68 0 1.36 0 0 Z " fill="#000000" transform="translate(188,123)"/>
<path d="M0 0 C1.65 0 3.3 0 5 0 C5 1.32 5 2.64 5 4 C3.35 4 1.7 4 0 4 C0 2.68 0 1.36 0 0 Z " fill="#000000" transform="translate(188,115)"/>
<path d="M0 0 C1.65 0 3.3 0 5 0 C5 1.32 5 2.64 5 4 C3.35 4 1.7 4 0 4 C0 2.68 0 1.36 0 0 Z " fill="#000000" transform="translate(188,107)"/>
<path d="M0 0 C1.65 0 3.3 0 5 0 C5 1.32 5 2.64 5 4 C3.35 4 1.7 4 0 4 C0 2.68 0 1.36 0 0 Z " fill="#000000" transform="translate(188,99)"/>
<path d="M0 0 C1.65 0 3.3 0 5 0 C5 1.32 5 2.64 5 4 C3.35 4 1.7 4 0 4 C0 2.68 0 1.36 0 0 Z " fill="#000000" transform="translate(188,91)"/>
<path d="M0 0 C1.65 0 3.3 0 5 0 C5 1.32 5 2.64 5 4 C3.35 4 1.7 4 0 4 C0 2.68 0 1.36 0 0 Z " fill="#000000" transform="translate(188,83)"/>
<path d="M0 0 C1.65 0 3.3 0 5 0 C5 1.32 5 2.64 5 4 C3.35 4 1.7 4 0 4 C0 2.68 0 1.36 0 0 Z " fill="#000000" transform="translate(188,75)"/>
<path d="M0 0 C1.65 0 3.3 0 5 0 C5 1.32 5 2.64 5 4 C3.35 4 1.7 4 0 4 C0 2.68 0 1.36 0 0 Z " fill="#000000" transform="translate(188,67)"/>
<path d="M0 0 C1.65 0 3.3 0 5 0 C5 1.32 5 2.64 5 4 C3.35 4 1.7 4 0 4 C0 2.68 0 1.36 0 0 Z " fill="#000000" transform="translate(188,59)"/>
<path d="M0 0 C1.65 0 3.3 0 5 0 C5 1.32 5 2.64 5 4 C3.35 4 1.7 4 0 4 C0 2.68 0 1.36 0 0 Z " fill="#000000" transform="translate(188,51)"/>
<path d="M0 0 C1.65 0 3.3 0 5 0 C5 1.32 5 2.64 5 4 C3.35 4 1.7 4 0 4 C0 2.68 0 1.36 0 0 Z " fill="#000000" transform="translate(188,43)"/>
<path d="M0 0 C1.65 0 3.3 0 5 0 C5 1.32 5 2.64 5 4 C3.35 4 1.7 4 0 4 C0 2.68 0 1.36 0 0 Z " fill="#000000" transform="translate(188,35)"/>
<path d="M0 0 C1.65 0 3.3 0 5 0 C5 1.32 5 2.64 5 4 C3.35 4 1.7 4 0 4 C0 2.68 0 1.36 0 0 Z " fill="#000000" transform="translate(188,27)"/>
<path d="M0 0 C1.65 0 3.3 0 5 0 C5 1.32 5 2.64 5 4 C3.35 4 1.7 4 0 4 C0 2.68 0 1.36 0 0 Z " fill="#000000" transform="translate(188,19)"/>
<path d="M0 0 C1.65 0 3.3 0 5 0 C5 1.32 5 2.64 5 4 C3.35 4 1.7 4 0 4 C0 2.68 0 1.36 0 0 Z " fill="#000000" transform="translate(188,11)"/>
</svg>
